<svg id="Layer_1" data-name="Layer 1" xmlns="http://www.w3.org/2000/svg" viewBox="0 0 718.68 330.76">
  <defs>
    <style>
      .cls-1 {
        fill: none;
        stroke: #69bf66;
      }
    </style>
  </defs>
  <path class="cls-1" d="M719.28,314.71C689.51,327.25,610.71,330.47,533.63,243,437.29,133.59,186.94,140.65,101.85,101.84,33.77,70.79,6.44,15.2,1.28-8.72" transform="translate(-0.8 8.97)"/>
  <path class="cls-1" d="M719.28,189.44c-23.4,7.68-85.35,9.65-145.94-44C497.6,78.47,300.79,82.8,233.89,59c-53.51-19-75-53.08-79-67.74" transform="translate(-0.8 8.97)"/>
  <path class="cls-1" d="M719.28,91.5c-17.27,3.89-63,4.88-107.71-22.23-55.9-33.89-201.15-31.7-250.52-43.73-39.5-9.62-55.36-26.85-58.35-34.26" transform="translate(-0.8 8.97)"/>
  <path class="cls-1" d="M719.28,246.38c-26.46,9.89-96.53,12.43-165.06-56.59C468.56,103.53,246,109.09,170.32,78.48,109.79,54,85.49,10.15,80.9-8.72" transform="translate(-0.8 8.97)"/>
  <path class="cls-1" d="M719.28,148.44c-20.81,6.1-75.89,7.66-129.77-34.86C522.17,60.43,347.17,63.86,287.69,45,240.11,29.92,221,2.9,217.4-8.72" transform="translate(-0.8 8.97)"/>
  <path class="cls-1" d="M719.28,41.39c-13,2-47.3,2.44-80.87-11.11-42-17-151-15.85-188.11-21.87C420.65,3.6,408.74-5,406.49-8.72" transform="translate(-0.8 8.97)"/>
</svg>
