<svg id="Layer_1" data-name="Layer 1" xmlns="http://www.w3.org/2000/svg" viewBox="0 0 161.07 195.52">
  <g>
    <path d="M104.34,111.19c.28-.19.43-.24.5-.35,1-1.64,1.81-1.76,3.6-.82a1.83,1.83,0,0,0,2,0,1.54,1.54,0,0,1,1.28.11c2.13,1.15,3.54,2.77,3.22,5.4-.08.65,0,1,.88,1.07.4,0,.93.6,1.13,1,.36.77.46,1.65.78,2.45a1.22,1.22,0,0,0,.8.71c.25,0,.6-.4.78-.7a10.13,10.13,0,0,1,.66-1.45c.27-.32.8-.43,1.21-.64a7.82,7.82,0,0,1,.29,1.13,4.26,4.26,0,0,1-.18.83c-.12,1,.24,1.41,1.21,1.48a6.49,6.49,0,0,0,1.08,0,5.49,5.49,0,0,1,4.25,1.42,10.32,10.32,0,0,1,3.09,4.45,4,4,0,0,1,.16,2.07,1.11,1.11,0,0,0,.81,1.48,5.23,5.23,0,0,0,1,.28c1.73.29,3.47.47,5.17.87a2.44,2.44,0,0,1,2,3.07c-.12.81-.29,1.61-.46,2.42-.57,2.86.15,4.08,2.93,5a17.89,17.89,0,0,1,2.85,1.2,1.58,1.58,0,0,1,.71,1.26,4.94,4.94,0,0,0,.68,3.28,24.77,24.77,0,0,1,1.3,2.82c1,3,.24,4.59-2.74,5.64-1.67.59-1.85,1-1.18,2.59.46,1.11.3,1.6-.74,2.22a6.2,6.2,0,0,0-1.46.87,4.25,4.25,0,0,0-1.07,1.76c-.38,1.59-.6,3.22-.85,4.84-.19,1.29-.12,2.53,1.06,3.39a3.94,3.94,0,0,0,6-1.8,7.31,7.31,0,0,1,4.32-5,3.25,3.25,0,0,0,2-2.74,9.87,9.87,0,0,0,.09-2c-.25-2.78,1-4.63,3.42-5.87a25.44,25.44,0,0,0,4-2.49c2.21-1.7,2.52-4.12,2.13-6.69-.07-.46-.55-.87-.86-1.29a6.24,6.24,0,0,1-1.12-1.5,3.55,3.55,0,0,0-2.38-2.41c-3.62-1.32-2.59-.39-3.75-4-.06-.2-.09-.42-.16-.62a2.41,2.41,0,0,1,.91-2.95,8.76,8.76,0,0,0,3.2-5.06,20.7,20.7,0,0,1,1.16-3.1c.37-.8,1.13-1.26,1.93-.65,1.78,1.37,3.89,1.54,6,1.77a2.54,2.54,0,0,1,2.62,2.28,2.69,2.69,0,0,0,2.4,2.4,3,3,0,0,1,2.67,2.75c.4,2.12,1.9,2.82,3.94,2,.8-.32,1.19-.77.78-1.63a6.62,6.62,0,0,1-.35-4.19,5.31,5.31,0,0,0-.14-2.63,3.11,3.11,0,0,0-1.51-1.78,5.39,5.39,0,0,1-2.63-2.25c-.7-1.08-1.36-2.18-2-3.31a3.48,3.48,0,0,0-3-1.83,5.63,5.63,0,0,1-1.94-.51c-1.53-.77-3-1.67-4.53-2.44a23.91,23.91,0,0,1-6-3.89,6.43,6.43,0,0,0-1.94-1.08c-2.13-.91-4.29-1.76-6.42-2.67-1.34-.57-2.65-1.23-4-1.8a2.58,2.58,0,0,1-1.38-2.6c0-.86.52-1.1,1.22-1.36a2.42,2.42,0,0,0,.68-4.34,6.26,6.26,0,0,0-4.31-1.35,3,3,0,0,0-2.17.91c-.8,1.32-1.9,1.13-3.06,1.09s-2.15,0-3.21-.17a1.29,1.29,0,0,1-.92-.65,3.72,3.72,0,0,0-2.94-2.79,6.13,6.13,0,0,1-3.18-2.23,14.23,14.23,0,0,0-2.85-2.74,28.3,28.3,0,0,1-6.23-6.32,4,4,0,0,1-1-2.2c.1-1.93-.83-3.34-1.87-4.78a13.26,13.26,0,0,1-2.51-6.73c-.29-3.09-1.85-4.74-4.84-5.54a17.82,17.82,0,0,1-2.16-.63,3.89,3.89,0,0,1-1.25-.88c-1.15-1.21-2-2.81-3.42-3.6a10.68,10.68,0,0,1-4.2-4.93,4.15,4.15,0,0,0-.42-.74,5.41,5.41,0,0,1-1-3.65c0-1,.06-2,.1-3a3,3,0,0,1,1.83-2.79c1.31-.61,1.66-1.24,1.23-2.63a6.13,6.13,0,0,0-1.33-2.15c-.63-.71-1.52-1.21-2.13-1.94A2,2,0,0,1,94.34,35c.12-.4.78-.68,1.25-.9s1-.11,1.3-.37c.76-.68,1.36-1.53,2.12-2.22a3.24,3.24,0,0,1,1.46-.75,3.44,3.44,0,0,1,1.91,0c2,.84,3.6.23,5.27-1,1.41-1.07,2.46-.55,3.16,1.09A1.7,1.7,0,0,0,113,32a6.83,6.83,0,0,0,2.21-1.22,1.56,1.56,0,0,0,.14-2.66,17.38,17.38,0,0,0-2.87-2.41,3.64,3.64,0,0,1-1.64-4.08c.08-.45.16-.91.25-1.37.35-1.92.22-2.24-1.43-3.14a2.69,2.69,0,0,1,.29-.43c1-1.06,1.1-1.46.47-2.83a1.21,1.21,0,0,0-1.44-.81,14.46,14.46,0,0,1-2.77.28,1.81,1.81,0,0,1-1.35-.75A2.58,2.58,0,0,0,101.64,11a1.6,1.6,0,0,1-1.86-.88c-.78-1.33-1-1.32-2.14-.33a1,1,0,0,1-.74.26c-.18-.05-.27-.42-.37-.67s-.16-.85-.37-.93c-1-.36-.88-1.23-1.07-1.95s-.22-1.41-.4-2.1c-.31-1.16-.66-1.37-1.78-1a4.6,4.6,0,0,1-3.64-.07,1.75,1.75,0,0,0-1.4,0c-.71.43-1.09.1-1.6-.29s-1.17-.94-1.73-.9c-2.32.16-4.64.42-6,2.8-.62,1.09-1.27,1.22-2.45.71-.26-.12-.51-.25-.78-.35-1.46-.56-2.25-.26-3,1.11l-.47.84A3.74,3.74,0,0,1,68,9.53a1.9,1.9,0,0,0-1.58.74,2.38,2.38,0,0,0,.27,1.85,20.85,20.85,0,0,0,1.9,2.47,8.76,8.76,0,0,0-.83.79,7.08,7.08,0,0,0-.74,1c-.37.62-.92.78-1.43.34a9.62,9.62,0,0,1-1.43-1.68c-.46-.59-.89-1.14-1.77-.74-1.51.7-1.52.69-2.11-.91a4.92,4.92,0,0,0-3.35-3.22c-.81-.25-1.32,0-1.42.92a8.34,8.34,0,0,0,.66,4.71,1.12,1.12,0,0,1-.56,1.74,5,5,0,0,0-1.46,1,2.71,2.71,0,0,1-3.27,1,2.71,2.71,0,0,1-.9-.94A9.12,9.12,0,0,0,48.8,17a4.37,4.37,0,0,1-1.89-3.33A2,2,0,0,0,43.69,12a10.15,10.15,0,0,0-2.38,2.29C40,16.07,38.8,18,37.56,19.87c-1.09,1.64-1.72,1.81-3.44,1a6.66,6.66,0,0,0-1.61-.55,2.58,2.58,0,0,0-1.11.19c-.73.22-1.51.78-2.16.66-2.52-.5-3.86.57-4.73,2.84-.61,1.59-.66,2.54.47,3.82.35.4.75.77,1.14,1.14a2.74,2.74,0,0,1,.5,3.49,2.58,2.58,0,0,1-3,1.44,7.08,7.08,0,0,0-1.38-.12,3,3,0,0,0-2.71,3.38c.31,2.08,1.46,2.95,3.39,2.54.74-.16,1.57-.41,2,.5a1.77,1.77,0,0,1-.62,2.28c-.72.54-1.43,1.08-2.1,1.67a12,12,0,0,0-1.66,1.68c-.67.89-.47,1.49.58,1.9.6.23,1.23.36,1.85.55.89.26,1.35.62,1.08,1.76-.45,1.92.66,3.31,2.09,4.39,1.26,1,2.33.13,3.42-.55.34-.22,1.06-.39,1.23-.21a1.72,1.72,0,0,1,.46,1.39,9.69,9.69,0,0,1-1.26,2.2,2.09,2.09,0,0,0-.42,2.27c.71,1.53,1.6,2,3.3,1.43A8.53,8.53,0,0,0,37,57.84a7.49,7.49,0,0,1,4.13-2.69c2.12-.59,4.15-1.48,6.24-2.21a16.8,16.8,0,0,1,3.07-.89c3.06-.42,5.54.94,7.61,3A16.33,16.33,0,0,0,64,59c1.74.64,2.08,1.73,1.73,3.64a11.25,11.25,0,0,0-.18,3.17,8.66,8.66,0,0,0,2.66,4.91,7.26,7.26,0,0,1,1.85,2.93c.18.66-.56,1.59-.92,2.38-.78,1.71-.39,2.37,1.49,2.48s2.32.47,2.26,2.31a3.66,3.66,0,0,0,2.32,3.73c1.87.93,1.93,1.14,1.3,3.07-.46,1.4-.11,1.9,1.37,2a7.52,7.52,0,0,1,1.8.25,2.82,2.82,0,0,1,1.45,1,8,8,0,0,0,2.94,2.57,27.5,27.5,0,0,1,3.85,2.84,41.65,41.65,0,0,1,2.83,3.23c1.54,1.74,3,3.52,4.67,5.18a3.83,3.83,0,0,0,4.19,1.16,2,2,0,0,1,2.35.91,29.4,29.4,0,0,1,1.56,2.8Zm23.94,86.57c3.58.05,4.83-1.12,5.27-4a1.66,1.66,0,0,1,.57-1c1.41-1,1.8-2,1.26-3.6a22.16,22.16,0,0,0-1.14-2.54c-.47-1-1-2-1.45-3a2.1,2.1,0,0,1,.26-2.5,2.6,2.6,0,0,0,.31-3.67,1.66,1.66,0,0,1,.22-2.15,30.56,30.56,0,0,0,1.75-2.57,21.78,21.78,0,0,1,2-2.94c1.67-1.8,1.54-3.7.66-5.76a1.24,1.24,0,0,0-1.72-.79,9.26,9.26,0,0,0-1.74.83c-1.37.84-2.73,1.7-4.06,2.61a6.29,6.29,0,0,1-5.32.91,5.24,5.24,0,0,0-3.2.37,28.16,28.16,0,0,1-6,1.57,43.38,43.38,0,0,1-5.47,0,4.82,4.82,0,0,1-3.92-1.6,13.26,13.26,0,0,0-2.47-2.21c-2.18-1.46-3.27-1.36-5.33.24l-1.1.86c-1.58,1.22-2.15,1.2-3.63-.13l-.47-.44c-2-1.82-4-1.21-4.75,1.39A37.78,37.78,0,0,1,87,173c-1,2.12-.73,2.87,1.46,3.76a9.85,9.85,0,0,1,3,1.65,12.43,12.43,0,0,0,8.4,3.52c2.07.06,2.83.7,3.44,2.72a3.21,3.21,0,0,0,2.52,2.47,7.67,7.67,0,0,1,4.28,2.51,1.73,1.73,0,0,0,1.11.43c1.47.11,2.94.12,4.4.23,3.54.27,5,1.67,5.25,5.11a1.1,1.1,0,0,0,1,1.16ZM67.09,79.15c-.76.07-1.43.24-1.3,1.33a1.19,1.19,0,0,1-.48.83,1.16,1.16,0,0,0-.42,1.58c.24.5.44,1.18,1.19.93a26.46,26.46,0,0,0,2.75-1.18.83.83,0,0,0,.33-.4C69.65,81.2,68.29,79.13,67.09,79.15Z" transform="translate(-19.47 -2.24)"/>
    <path d="M104.34,111.19l-.83-1.61a29.4,29.4,0,0,0-1.56-2.8,2,2,0,0,0-2.35-.91,3.83,3.83,0,0,1-4.19-1.16c-1.63-1.66-3.13-3.44-4.67-5.18a41.65,41.65,0,0,0-2.83-3.23,27.5,27.5,0,0,0-3.85-2.84,8,8,0,0,1-2.94-2.57,2.82,2.82,0,0,0-1.45-1,7.52,7.52,0,0,0-1.8-.25c-1.48-.15-1.83-.65-1.37-2,.63-1.93.57-2.14-1.3-3.07a3.66,3.66,0,0,1-2.32-3.73c.06-1.84-.37-2.21-2.26-2.31s-2.27-.77-1.49-2.48c.36-.79,1.1-1.72.92-2.38a7.26,7.26,0,0,0-1.85-2.93,8.66,8.66,0,0,1-2.66-4.91,11.25,11.25,0,0,1,.18-3.17c.35-1.91,0-3-1.73-3.64a16.33,16.33,0,0,1-5.9-4c-2.07-2-4.55-3.41-7.61-3a16.8,16.8,0,0,0-3.07.89c-2.09.73-4.12,1.62-6.24,2.21A7.49,7.49,0,0,0,37,57.84,8.53,8.53,0,0,1,32.79,61c-1.7.52-2.59.1-3.3-1.43a2.09,2.09,0,0,1,.42-2.27,9.69,9.69,0,0,0,1.26-2.2,1.72,1.72,0,0,0-.46-1.39c-.17-.18-.89,0-1.23.21-1.09.68-2.16,1.5-3.42.55C24.63,53.36,23.52,52,24,50.05c.27-1.14-.19-1.5-1.08-1.76-.62-.19-1.25-.32-1.85-.55-1.05-.41-1.25-1-.58-1.9a12,12,0,0,1,1.66-1.68c.67-.59,1.38-1.13,2.1-1.67a1.77,1.77,0,0,0,.62-2.28c-.39-.91-1.22-.66-2-.5-1.93.41-3.08-.46-3.39-2.54a3,3,0,0,1,2.71-3.38,7.08,7.08,0,0,1,1.38.12,2.58,2.58,0,0,0,3-1.44,2.74,2.74,0,0,0-.5-3.49c-.39-.37-.79-.74-1.14-1.14-1.13-1.28-1.08-2.23-.47-3.82.87-2.27,2.21-3.34,4.73-2.84.65.12,1.43-.44,2.16-.66a2.58,2.58,0,0,1,1.11-.19,6.66,6.66,0,0,1,1.61.55c1.72.8,2.35.63,3.44-1C38.8,18,40,16.07,41.31,14.25A10.15,10.15,0,0,1,43.69,12a2,2,0,0,1,3.22,1.73A4.37,4.37,0,0,0,48.8,17,9.12,9.12,0,0,1,50,18.66a2.71,2.71,0,0,0,.9.94,2.71,2.71,0,0,0,3.27-1,5,5,0,0,1,1.46-1,1.12,1.12,0,0,0,.56-1.74,8.34,8.34,0,0,1-.66-4.71c.1-.9.61-1.17,1.42-.92a4.92,4.92,0,0,1,3.35,3.22c.59,1.6.6,1.61,2.11.91.88-.4,1.31.15,1.77.74a9.62,9.62,0,0,0,1.43,1.68c.51.44,1.06.28,1.43-.34a7.08,7.08,0,0,1,.74-1,8.76,8.76,0,0,1,.83-.79,20.85,20.85,0,0,1-1.9-2.47,2.38,2.38,0,0,1-.27-1.85A1.9,1.9,0,0,1,68,9.53a3.74,3.74,0,0,0,3.84-2.18l.47-.84c.78-1.37,1.57-1.67,3-1.11.27.1.52.23.78.35,1.18.51,1.83.38,2.45-.71,1.34-2.38,3.66-2.64,6-2.8.56,0,1.21.51,1.73.9s.89.72,1.6.29a1.75,1.75,0,0,1,1.4,0,4.6,4.6,0,0,0,3.64.07c1.12-.41,1.47-.2,1.78,1,.18.69.21,1.41.4,2.1s.1,1.59,1.07,2c.21.08.24.62.37.93s.19.62.37.67a1,1,0,0,0,.74-.26c1.17-1,1.36-1,2.14.33a1.6,1.6,0,0,0,1.86.88,2.58,2.58,0,0,1,3.18,1.52,1.81,1.81,0,0,0,1.35.75,14.46,14.46,0,0,0,2.77-.28,1.21,1.21,0,0,1,1.44.81c.63,1.37.58,1.77-.47,2.83a2.69,2.69,0,0,0-.29.43c1.65.9,1.78,1.22,1.43,3.14-.09.46-.17.92-.25,1.37a3.64,3.64,0,0,0,1.64,4.08,17.38,17.38,0,0,1,2.87,2.41,1.56,1.56,0,0,1-.14,2.66A6.83,6.83,0,0,1,113,32a1.7,1.7,0,0,1-2.15-1.12c-.7-1.64-1.75-2.16-3.16-1.09-1.67,1.26-3.24,1.87-5.27,1a3.44,3.44,0,0,0-1.91,0,3.24,3.24,0,0,0-1.46.75c-.76.69-1.36,1.54-2.12,2.22-.3.26-.9.17-1.3.37s-1.13.5-1.25.9a2,2,0,0,0,.35,1.64c.61.73,1.5,1.23,2.13,1.94a6.13,6.13,0,0,1,1.33,2.15c.43,1.39.08,2-1.23,2.63a3,3,0,0,0-1.83,2.79c0,1-.06,2-.1,3a5.41,5.41,0,0,0,1,3.65,4.15,4.15,0,0,1,.42.74,10.68,10.68,0,0,0,4.2,4.93c1.37.79,2.27,2.39,3.42,3.6a3.89,3.89,0,0,0,1.25.88,17.82,17.82,0,0,0,2.16.63c3,.8,4.55,2.45,4.84,5.54a13.26,13.26,0,0,0,2.51,6.73c1,1.44,2,2.85,1.87,4.78a4,4,0,0,0,1,2.2,28.3,28.3,0,0,0,6.23,6.32,14.23,14.23,0,0,1,2.85,2.74,6.13,6.13,0,0,0,3.18,2.23A3.72,3.72,0,0,1,132.81,97a1.29,1.29,0,0,0,.92.65c1.06.12,2.14.14,3.21.17s2.26.23,3.06-1.09a3,3,0,0,1,2.17-.91,6.26,6.26,0,0,1,4.31,1.35,2.42,2.42,0,0,1-.68,4.34c-.7.26-1.23.5-1.22,1.36a2.58,2.58,0,0,0,1.38,2.6c1.35.57,2.66,1.23,4,1.8,2.13.91,4.29,1.76,6.42,2.67a6.43,6.43,0,0,1,1.94,1.08,23.91,23.91,0,0,0,6,3.89c1.53.77,3,1.67,4.53,2.44a5.63,5.63,0,0,0,1.94.51,3.48,3.48,0,0,1,3,1.83c.62,1.13,1.28,2.23,2,3.31a5.39,5.39,0,0,0,2.63,2.25,3.11,3.11,0,0,1,1.51,1.78,5.31,5.31,0,0,1,.14,2.63,6.62,6.62,0,0,0,.35,4.19c.41.86,0,1.31-.78,1.63-2,.8-3.54.1-3.94-2a3,3,0,0,0-2.67-2.75,2.69,2.69,0,0,1-2.4-2.4A2.54,2.54,0,0,0,168,126c-2.08-.23-4.19-.4-6-1.77-.8-.61-1.56-.15-1.93.65a20.7,20.7,0,0,0-1.16,3.1,8.76,8.76,0,0,1-3.2,5.06,2.41,2.41,0,0,0-.91,2.95c.07.2.1.42.16.62,1.16,3.65.13,2.72,3.75,4a3.55,3.55,0,0,1,2.38,2.41,6.24,6.24,0,0,0,1.12,1.5c.31.42.79.83.86,1.29.39,2.57.08,5-2.13,6.69a25.44,25.44,0,0,1-4,2.49c-2.44,1.24-3.67,3.09-3.42,5.87a9.87,9.87,0,0,1-.09,2,3.25,3.25,0,0,1-2,2.74,7.31,7.31,0,0,0-4.32,5,3.94,3.94,0,0,1-6,1.8c-1.18-.86-1.25-2.1-1.06-3.39.25-1.62.47-3.25.85-4.84a4.25,4.25,0,0,1,1.07-1.76,6.2,6.2,0,0,1,1.46-.87c1-.62,1.2-1.11.74-2.22-.67-1.6-.49-2,1.18-2.59,3-1.05,3.78-2.66,2.74-5.64a24.77,24.77,0,0,0-1.3-2.82,4.94,4.94,0,0,1-.68-3.28,1.58,1.58,0,0,0-.71-1.26,17.89,17.89,0,0,0-2.85-1.2c-2.78-1-3.5-2.18-2.93-5,.17-.81.34-1.61.46-2.42a2.44,2.44,0,0,0-2-3.07c-1.7-.4-3.44-.58-5.17-.87a5.23,5.23,0,0,1-1-.28,1.11,1.11,0,0,1-.81-1.48,4,4,0,0,0-.16-2.07,10.32,10.32,0,0,0-3.09-4.45,5.49,5.49,0,0,0-4.25-1.42,6.49,6.49,0,0,1-1.08,0c-1-.07-1.33-.52-1.21-1.48a4.26,4.26,0,0,0,.18-.83,7.82,7.82,0,0,0-.29-1.13c-.41.21-.94.32-1.21.64a10.13,10.13,0,0,0-.66,1.45c-.18.3-.53.71-.78.7a1.22,1.22,0,0,1-.8-.71c-.32-.8-.42-1.68-.78-2.45-.2-.44-.73-1-1.13-1-.87,0-1-.42-.88-1.07.32-2.63-1.09-4.25-3.22-5.4a1.54,1.54,0,0,0-1.28-.11,1.83,1.83,0,0,1-2,0c-1.79-.94-2.58-.82-3.6.82C104.77,111,104.62,111,104.34,111.19Z" transform="translate(-19.47 -2.24)"/>
    <path d="M128.28,197.76l-6.44-1.22a1.1,1.1,0,0,1-1-1.16c-.26-3.44-1.71-4.84-5.25-5.11-1.46-.11-2.93-.12-4.4-.23a1.73,1.73,0,0,1-1.11-.43,7.67,7.67,0,0,0-4.28-2.51,3.21,3.21,0,0,1-2.52-2.47c-.61-2-1.37-2.66-3.44-2.72a12.43,12.43,0,0,1-8.4-3.52,9.85,9.85,0,0,0-3-1.65c-2.19-.89-2.42-1.64-1.46-3.76a37.78,37.78,0,0,0,1.8-5.35c.74-2.6,2.71-3.21,4.75-1.39l.47.44c1.48,1.33,2,1.35,3.63.13l1.1-.86c2.06-1.6,3.15-1.7,5.33-.24a13.26,13.26,0,0,1,2.47,2.21,4.82,4.82,0,0,0,3.92,1.6,43.38,43.38,0,0,0,5.47,0,28.16,28.16,0,0,0,6-1.57,5.24,5.24,0,0,1,3.2-.37,6.29,6.29,0,0,0,5.32-.91c1.33-.91,2.69-1.77,4.06-2.61a9.26,9.26,0,0,1,1.74-.83A1.24,1.24,0,0,1,138,164c.88,2.06,1,4-.66,5.76a21.78,21.78,0,0,0-2,2.94,30.56,30.56,0,0,1-1.75,2.57,1.66,1.66,0,0,0-.22,2.15,2.6,2.6,0,0,1-.31,3.67,2.1,2.1,0,0,0-.26,2.5c.44,1,1,2,1.45,3a22.16,22.16,0,0,1,1.14,2.54c.54,1.65.15,2.58-1.26,3.6a1.66,1.66,0,0,0-.57,1C133.11,196.64,131.86,197.81,128.28,197.76Z" transform="translate(-19.47 -2.24)"/>
    <path d="M67.09,79.15c1.2,0,2.56,2,2.07,3.09a.83.83,0,0,1-.33.4,26.46,26.46,0,0,1-2.75,1.18c-.75.25-1-.43-1.19-.93a1.16,1.16,0,0,1,.42-1.58,1.19,1.19,0,0,0,.48-.83C65.66,79.39,66.33,79.22,67.09,79.15Z" transform="translate(-19.47 -2.24)"/>
  </g>
</svg>
