<svg id="Layer_2" data-name="Layer 2" xmlns="http://www.w3.org/2000/svg" viewBox="0 0 191.67 191.67">
  <defs>
    <style>
      .cls-1, .cls-3 {
        fill: none;
        stroke: #000;
        stroke-miterlimit: 10;
      }

      .cls-1 {
        stroke-width: 2px;
      }

      .cls-2 {
        font-size: 20px;
        fill: #231f20;
        font-family: NeueKabelW01-BlackItalic;
        font-weight: 800;
        font-style: italic;
      }

      .cls-3 {
        stroke-width: 3.5px;
      }
    </style>
  </defs>
  <g>
    <path d="M99.11,163.27c-16.84.35-32.55-6.26-45.59-18.51-15.32-14.4-22-32.67-19.14-53.51,2.57-18.8,11.77-34.2,27.73-45,14.57-9.89,30.58-13.31,48.08-10.94a63.53,63.53,0,0,1,36.86,18.05,66.8,66.8,0,0,1,11,15.08c7.66,13.7,10,28.55,6.45,43.83-4.28,18.42-14.74,32.62-31.19,42.31C123.15,160.55,112.25,163.43,99.11,163.27Zm50.74-60.2,1.65-1.16,2.07,3.5c-.82,1.15-1.65,1.84-1.86,2.68-1.42,5.69-.25,11.72-2.29,17.34-.12.33.3.86.21.62l7.08.64c-.45-2.14-1.1-3.78-1.07-5.41.11-5.38,1.09-10.82.53-16.11-.49-4.56,2.05-6.46,5.88-9.64l-3.94-2.76.5-.78,5.51,3.53c-.5-1.44-.6-3.21-1.52-4.17-2.58-2.69-4.25-5.27-1.3-8.69l-3.67-2h3.17l-3.7-8-.95,0c-.56,2.23-1.11,4.47-1.66,6.7a7,7,0,0,0-1,2.55c-.08.54.39,1.16.33,1.71-.3,2.67-.69,5.32-1,7.61-.55.29-1.56.5-2,1.12s-.62,1.86-1,3.25c-1.8-.08-3.74-.65-4.33,3.62-.49,3.5-4.63,6.48-7.06,9.75-.92,1.23-1.59,2.64-2.79,4.68,11.21-1.19,11.24-10.81,15.94-16.58-.56,2-1.12,4-1.65,6.11l-3.72,15.4,1.42.27Zm-14.1-8.5c-2.33-2.43-4.3,1.75-6.45.34-3.5-2,3.35-5.58-1.41-7.32l3.7-1.63-.37,3.14,4.06-1.25L133,87.18l3.83-2.67-3.11-.6c6.43-.79,6.58-1,5.38-6l3.54-1.08c-1.49-2-2.81-3.7-4.13-5.44s-2.36-4.29-4.14-5.08c-1.39-.62-3.56-3.09-5.62-.42-1.76,2.29-3.94,4.3-5.47,6.74-2.41,3.86-3.18,8-.58,12.25,3.17,5.22,2.61,9.8-1.73,14.28a25.6,25.6,0,0,1-4.19,2.91c3.52,1.5,6.86,1.21,8.4,2.74,1.32,1.32.59,4.7.77,7.17,3.52.16,2.3-2.79,2.76-4.82,1-4.33.87-4.75-1.7-4.48-.12,0-.25,0-.68,0L125.2,100l3.06-.39L127,97.13l4.58-1.9c.16,1.84.24,2.84.34,4,1.38-1.77,2.56-3.3,3.73-4.84,3.87-2.05,8.16-8.14,7.61-11l-5.49,1,2.43,3c-2.18-.13-2,1.64-2.49,3S136.41,93.18,135.75,94.57Zm19.19-27.43c-29.12-45.23-85-32-102.56-8.23,6.81,1,10.88,4.75,12.2,11.38.18.91,1.16,1.65,1.69,2.52s1.24,1.65,1.12,2.36c-.76,4.61,2.42,4.71,5.52,5.27a64.82,64.82,0,0,1,6.83,2,31.83,31.83,0,0,0,0-3.38c-.52-5,1.89-8.19,5.91-10.77,1.21-.78,2.51-2.63,2.46-3.93-.18-4.33,1.78-7.81,4.28-10.74,2.78-3.27,6.31-6,11.23-5a15.23,15.23,0,0,1,11.76,13c.57,4.48,1.29,8.67,6.11,10.86a19.28,19.28,0,0,1,1.89-3.33c5.62-6.61,10.19-10.8,18.1-6,3.94,2.41,7.7,5.14,11.46,7.66Zm-92.51,81c7.94,15.5,61.41,17.26,72.22,1.81l-28.59-23.49-.9.64c.33,1.37.65,2.74.88,3.72l-13.22.76v-4c-5.12,3.62-9.75,7-14.49,10.19C73.12,141.33,67.79,144.67,62.43,148.14ZM39.67,117.58c0,3.32,1.37,6.67,4.25,5.43,4.86-2.1,9-2.43,13.74.45-5.44-5.65-6.29-12.75-7.91-19.57,4.6,4.47,9.77,8.31,9.54,15.78-.12,4.06,2.33,5,6.29,3.41-1.76-2.13-3.59-4.32-5.42-6.52l1.11-.9,4.53,4.52.79-.74c-2.83-4.35-5.17-9.16-8.68-12.87-2.1-2.23-2.18-4.38-2.49-6.76s0-4.64-.33-6.91c-.59-4.08-3.52-7.46-6.51-7.89l-8.83-1.23L41.2,86c-1.13.67-3,1.27-3,1.87,0,1.48.81,4.21,1.39,4.24,3.3.15,1.87,2.93,3.86,4.81l-2.06-.77-2.66-1c.13.92.26,1.83.38,2.74.37,2.62,1.39,5.47-2,6.25l4.83,3.53-.51.93-4-2c-1.47,4.34,3.36,5,4.75,8l-3.36-1.84-.88.94,7,6.57-.47.57C42.89,119.77,41.39,118.76,39.67,117.58ZM66.19,92.9c-.62-5-1.16-9.4-1.69-13.77-.23-1.84-.12-3.81-.74-5.5a41,41,0,0,0-3.33-6c-1-1.69-2.26-4.84-3-4.72-2.29.33-4.38,1.95-6.55,3.06l.46,1h3L51.5,68.82l2.18,1.51-6.49,3.3c-1.55-3.9,1.07-4.32,3.83-5l-1.8-1.12L51.43,62l-1.85-.89c-2.64,4.82-5.11,9.75-8,14.43C38.84,80.09,39.7,82,45,82.33c8.79.5,13.34,5.29,15.62,14,1,4,3.33,7.58,5.06,11.36l1.68-.56c-.72-4.09-.35-8.91-2.46-12.08a88.34,88.34,0,0,1-5.67-10.85c-.32-.66-1.11-1.06-1.58-1.67-.6-.78-1.1-1.66-1.91-2.89C63.83,80.79,61.72,89.06,66.19,92.9ZM67,82c.87,2.57,2.5,5.35,2.62,8.2.26,6.8-.2,13.63-.33,20.44,0,.6.1,1.63.4,1.73,3.6,1.24,3,4.23,3.2,7a21.81,21.81,0,0,0,1.2,4.31l1.08-.33c-2.53-3.78,3.1-9.56-3.58-12.33-.08,0-.1-.23-.13-.35-1.22-4,2.29-8.6,6.58-8.62h5c-7.55-5.35-7.49-12.07-5.88-19.79C72.88,86.53,71,80.48,67,82Zm76.82,18.12c-.87-4.1-.26-5.43,3.73-8.2a3.22,3.22,0,0,0,1.17-1.66c.87-3.2,1.69-6.41,2.42-9.64.35-1.53.47-3.1.69-4.66-2.59,4.07-4.24,8.43-6.46,12.48-1.38,2.53-3.81,4.47-5.42,6.91a71.61,71.61,0,0,0-4.4,8.14c-.6,1.21-2,1.4-2.06,3.69,0,2.76-2.87,5.51-4.5,8.27l-.91-.5c-.86,3.28-1.71,6.57-2.8,10.78,2.72-.77,4.44-1.12,6-1.76s3.18-1.62.82-3.43a1.58,1.58,0,0,1-.44-1.32c1.05-5,2.31-9.94,6.08-13.71C139.66,103.6,141.74,101.93,143.81,100.09Zm6.59,35.76-34.69-7.29c8.54,4.19,17.15,8.17,25.89,11.84C146.5,142.45,147.65,141.73,150.4,135.85Zm-96.76,4.44c.45.37,1.22.67,1.31,1.1.74,3.63,2.9,4.78,5.94,3.06s6.24-3.48,9.34-5.26c5.07-2.9,10.12-5.83,15.18-8.74-4.85,1-9.27,2.94-13.87,4.35C65.65,136.62,60.51,141.09,53.64,140.29Zm90.18,3.22c-9.33-2-16-9-25.28-10.25a8.12,8.12,0,0,0,2.26,2.55c4.48,3.39,9.31,6.4,13.37,10.22,3.27,3.08,5.37,2.33,7.8-.5C142.37,145.06,142.8,144.62,143.82,143.51Zm-38.68-53,8.13,7.86,2.16-3.89-7-2.09.27-1.31,2.65-.26.5-5.09,2.57.38V76.68l.7,0-3.3-4.83c.18,2.91,2.86,6-1.09,7.15.27,1.54.91,2.83.51,3.54A5.19,5.19,0,0,1,108.31,85c-2.82.68-4.86-.4-5.36-3.75-.88,2.13-1.26,3.69,1.5,4.65S107.63,88.54,105.14,90.5Zm18.28,36.74-.15,1.22c9.54,1.57,19.06,3.25,28.64,4.57,1,.13,2.26-1.92,3.41-3l-.62-.89Zm-75.81,6.2c.41,3.72,2.23,4.84,6.44,3.37,3.25-1.14,6.58-2,9.89-3l16.5-4.76a58.53,58.53,0,0,0-11.44,1c-4.82.85-9.6,1.93-14.42,2.76C52.4,133.21,50.16,133.23,47.61,133.44Zm31-22.86v13.7h5.09c0-3.28-.18-6.35,0-9.4C84,111.36,82.68,109.86,78.63,110.58ZM94,124.44c0-1.6.11-3.1,0-4.58-.1-1-.31-2.46-.9-2.71a73.3,73.3,0,0,0-7.34-2.43v9.72Zm26.55.78V112.13l-4.24-.63v13.72Zm-77.28,1.37-.68.53c1.28.85,2.63,2.51,3.85,2.42,7.34-.5,14.65-1.4,22-2.17v-.78Zm62.22-8.11v6.82l6.57-.36v-8.31a30.75,30.75,0,0,1-3.12,1.25A34.68,34.68,0,0,1,105.44,118.48Zm12.14-13.32-.75,4.36h7.91c-.1-1.53-.17-2.77-.26-4.1a12.81,12.81,0,0,0-1.71-.25C121.23,105.14,119.7,105.16,117.58,105.16Zm23.33,9.51c-5.1,1.16-5.84,2.33-4.34,7l2.2-4.12.88.4c-.37,1-.78,2-1.1,3s-.56,2.09-.9,3.39C140.58,123.56,141.11,121.79,140.91,114.67Zm-42.07-4.46.49-1.49-5.59,2.71c3.93,2.54,3.9,2.55,5.48,7.9.14.48,1.13.71,1.28.79.46-2.19,1.31-3.94,1-5.46S99.77,111.68,98.84,110.21ZM76.11,108h5.57V103.8H76.11ZM94.44,88.35l-7-7.86-.66.59,3.58,4.8-2.82.6v1Zm9.1,40.13c-.23-3.72-.38-6.15-.52-8.59l-.65-.09-1.83,4.9-1.77-2.26-.68.69Zm20.59-16-1.44-.07v12l.37,0ZM100.71,55.81c-3.08-1.37-3.08-1.37-6.11,4.67Z" transform="translate(-4.17 -4.17)"/>
    <path d="M31.93,121.32c0-.76,0-2,0-3.28.11-5-1.85-6.3-6.57-4.62a77.86,77.86,0,0,1-7.9,1.88c.81,5.69,1.71,12,2.61,18.3l1.53-.2-.79-9.28Z" transform="translate(-4.17 -4.17)"/>
    <path d="M31.73,121.37,21,124.07a.27.27,0,0,0-.2.27h0l-2,.23-1.29-9a.26.26,0,0,1,.2-.29,73,73,0,0,0,7.66-1.83c4.72-1.68,6.68-.38,6.57,4.62,0,1.16,0,2.31,0,3.08A.26.26,0,0,1,31.73,121.37Z" transform="translate(-4.17 -4.17)"/>
    <path d="M169.72,120.83c-.24,2.83-.49,5.81-.73,8.7l1.53.14,1.24-8.75Z" transform="translate(-4.17 -4.17)"/>
  </g>
  <circle class="cls-1" cx="95.83" cy="95.83" r="94.83"/>
  <circle class="cls-1" cx="95.83" cy="95.83" r="66.21"/>
  <text class="cls-2" transform="translate(25.55 100.6) rotate(-91.29)">I</text>
  <text class="cls-2" transform="translate(25.26 94.67) rotate(-84.65)">T</text>
  <text class="cls-2" transform="translate(25.81 85.68) rotate(-75.93)">A</text>
  <text class="cls-2" transform="matrix(0.4, -0.92, 0.92, 0.4, 29.34, 72.22)">L</text>
  <text class="cls-2" transform="matrix(0.55, -0.84, 0.84, 0.55, 32.63, 63.88)">O</text>
  <text class="cls-2" transform="matrix(0.65, -0.76, 0.76, 0.65, 41.21, 51.43)"> </text>
  <text class="cls-2" transform="translate(43.31 48.85) rotate(-45.17)">-</text>
  <text class="cls-2" transform="translate(48.4 43.82) rotate(-40.92)"> </text>
  <text class="cls-2" transform="matrix(0.83, -0.56, 0.56, 0.83, 50.6, 41.44)">A</text>
  <text class="cls-2" transform="translate(61.91 33.51) rotate(-21.3)">M</text>
  <text class="cls-2" transform="translate(78.15 27.49) rotate(-10.11)">E</text>
  <text class="cls-2" transform="matrix(1, -0.02, 0.02, 1, 88.14, 25.6)">R</text>
  <text class="cls-2" transform="translate(100.17 25.52) rotate(6.02)">I</text>
  <text class="cls-2" transform="matrix(0.97, 0.23, -0.23, 0.97, 106.04, 25.93)">C</text>
  <text class="cls-2" transform="translate(117.52 28.47) rotate(23.74)">A</text>
  <text class="cls-2" transform="matrix(0.82, 0.58, -0.58, 0.82, 130.21, 33.96)">N</text>
  <text class="cls-2" transform="translate(141.88 42.58) rotate(42.33)"> </text>
  <text class="cls-2" transform="translate(144.44 44.7) rotate(47.54)">L</text>
  <text class="cls-2" transform="translate(150.71 51.08) rotate(57.1)">O</text>
  <text class="cls-2" transform="translate(158.84 63.72) rotate(68.48)">D</text>
  <text class="cls-2" transform="translate(163.66 75.77) rotate(79.22)">G</text>
  <text class="cls-2" transform="translate(166.07 88.91) rotate(88.73)">E</text>
  <text class="cls-2" transform="translate(23.2 144.66) rotate(48.76)">M</text>
  <text class="cls-2" transform="matrix(0.79, 0.61, -0.61, 0.79, 37.08, 159.61)">E</text>
  <text class="cls-2" transform="translate(47.15 167.32) rotate(28.95)">R</text>
  <text class="cls-2" transform="translate(59.78 174.11) rotate(19.62)">C</text>
  <text class="cls-2" transform="translate(73.13 178.65) rotate(10.8)">E</text>
  <text class="cls-2" transform="translate(85.7 180.99) rotate(1.52)">D</text>
  <text class="cls-2" transform="translate(100.61 181.04) rotate(-4.92)"> </text>
  <text class="cls-2" transform="translate(105.09 180.67) rotate(-8.87)">,</text>
  <text class="cls-2" transform="translate(112.3 179.48) rotate(-12.66)"> </text>
  <text class="cls-2" transform="matrix(0.95, -0.32, 0.32, 0.95, 117.18, 178.54)">C</text>
  <text class="cls-2" transform="translate(131.05 173.7) rotate(-29.16)">A</text>
  <text class="cls-2" transform="translate(145.34 165.31) rotate(-38.5)">L</text>
  <text class="cls-2" transform="matrix(0.71, -0.7, 0.7, 0.71, 154, 158.2)">I</text>
  <text class="cls-2" transform="matrix(0.63, -0.78, 0.78, 0.63, 159.51, 152.8)">F</text>
  <text class="cls-2" transform="translate(165.44 145.41) rotate(-55.91)">.</text>
  <circle class="cls-3" cx="95.83" cy="95.83" r="90.81"/>
  <g>
    <path d="M179.17,111.39l1.16-.06C180,111.33,179.58,111.35,179.17,111.39Z" transform="translate(-4.17 -4.17)"/>
    <path d="M175.33,111.58h.12c-1.46,0-3-.07-4.7-.07a.26.26,0,0,0-.26.24l-.77,9.09,2,.23h0a.28.28,0,0,1,.25-.22l8.28-.17-5.41.11Z" transform="translate(-4.17 -4.17)"/>
    <path d="M180.33,111.33l0,9.34,2.76-.06a.27.27,0,0,0,.25-.2c.17-.75.41-1.88.69-3C185.07,113.17,184,111.33,180.33,111.33Z" transform="translate(-4.17 -4.17)"/>
    <polygon points="176.13 116.5 176.13 116.5 176.12 116.5 176.13 116.5"/>
    <path d="M179.17,111.39l-3.72.18c1.12,0,2.23-.14,3.17-.13C178.82,111.44,179,111.4,179.17,111.39Z" transform="translate(-4.17 -4.17)"/>
  </g>
</svg>
